<?xml version="1.0" encoding="UTF-8" standalone="no"?>
<svg
   svg:contrastcolor="11111f"
   svg:template="Contrast"
   svg:presentation="2.5"
   svg:layouttype="undefined"
   svg:specialfontid="undefined"
   svg:id1="266"
   svg:id2="574"
   svg:companyname="animation Engine"
   svg:companytagline="7"
   version="1.1"
   viewBox="0 0 274.88535 279.80035"
   id="svg74"
   sodipodi:docname="animationEngine7.svg"
   width="274.88535"
   height="279.80035"
   inkscape:version="1.2 (dc2aedaf03, 2022-05-15)"
   inkscape:export-filename="animationEngine7.png"
   inkscape:export-xdpi="96"
   inkscape:export-ydpi="96"
   xmlns:inkscape="http://www.inkscape.org/namespaces/inkscape"
   xmlns:sodipodi="http://sodipodi.sourceforge.net/DTD/sodipodi-0.dtd"
   xmlns="http://www.w3.org/2000/svg"
   xmlns:svg="http://www.w3.org/2000/svg">
  <defs
     id="defs78" />
  <sodipodi:namedview
     id="namedview76"
     pagecolor="#505050"
     bordercolor="#eeeeee"
     borderopacity="1"
     inkscape:showpageshadow="0"
     inkscape:pageopacity="0"
     inkscape:pagecheckerboard="0"
     inkscape:deskcolor="#505050"
     showgrid="false"
     inkscape:zoom="1.1"
     inkscape:cx="103.63636"
     inkscape:cy="191.81818"
     inkscape:window-width="1366"
     inkscape:window-height="697"
     inkscape:window-x="-8"
     inkscape:window-y="-8"
     inkscape:window-maximized="1"
     inkscape:current-layer="g42" />
  <g
     fill="#f68d2e"
     fill-rule="none"
     stroke="none"
     stroke-width="1"
     stroke-linecap="butt"
     stroke-linejoin="miter"
     stroke-miterlimit="10"
     stroke-dasharray="none"
     stroke-dashoffset="0"
     font-family="none"
     font-weight="none"
     font-size="none"
     text-anchor="none"
     style="mix-blend-mode:normal"
     id="g44"
     transform="translate(-137.55732,-75.199651)">
    <g
       data-paper-data="{&quot;isGlobalGroup&quot;:true,&quot;bounds&quot;:{&quot;x&quot;:137.55732154742898,&quot;y&quot;:114.99999999999997,&quot;width&quot;:274.8853569051421,&quot;height&quot;:240.00000000000003}}"
       id="g42">
      <g
         data-paper-data="{&quot;isBesideStackedLine&quot;:true,&quot;isSecondaryText&quot;:true}"
         fill-rule="nonzero"
         id="g4"
         transform="matrix(4.6898891,0,0,4.7649218,-1464.301,-1390.2297)"
         style="fill:#dc9c57;fill-opacity:1">
        <path
           d="m 359.39264,307.92689 h 24.63735 l -8.46797,18.31227 -8.73632,0.57237 5.18607,-10.93413 h -12.61913 z m 6.09256,28.33374 5.83481,0.57237 -1.68355,4.38473 h -9.51168 l 1.89078,-3.87496 1.3374,-2.86183 z"
           data-paper-data="{&quot;glyphName&quot;:&quot;7&quot;,&quot;glyphIndex&quot;:0,&quot;firstGlyphOfWord&quot;:true,&quot;word&quot;:1}"
           id="path2"
           style="fill:#683636;fill-opacity:1"
           sodipodi:nodetypes="cccccccccccccc" />
      </g>
      <g
         data-paper-data="{&quot;stacked&quot;:true,&quot;isPrimaryText&quot;:true}"
         fill-rule="nonzero"
         id="g36"
         style="fill:#d26557;fill-opacity:1">
        <path
           d="m 170.13083,257.40096 c -1.14648,0 -2.09064,0.87672 -2.09064,2.0232 v 3.7092 c -3.16968,-3.7092 -7.89048,-6.0696 -13.1508,-6.0696 -9.57648,0 -17.33207,7.7556 -17.33207,17.26463 0,9.57648 7.7556,17.33207 17.33207,17.33207 5.26032,0 9.98112,-2.3604 13.1508,-6.0696 v 3.43944 c 0,1.14648 0.94416,2.09064 2.09064,2.09064 1.14648,0 2.0232,-0.94416 2.0232,-2.09064 v -29.60615 c 0,-1.14648 -0.87672,-2.0232 -2.0232,-2.0232 z m -15.24143,29.53871 c -6.94632,0 -12.61128,-5.59752 -12.61128,-12.61128 0,-6.94632 5.66496,-12.54384 12.61128,-12.54384 6.94632,0 12.61128,5.59752 12.61128,12.54384 0,7.01376 -5.66496,12.61128 -12.61128,12.61128 z"
           data-paper-data="{&quot;glyphName&quot;:&quot;a&quot;,&quot;glyphIndex&quot;:0,&quot;firstGlyphOfWord&quot;:true,&quot;word&quot;:1,&quot;line&quot;:1,&quot;firstGlyphOfFirstLine&quot;:true}"
           id="path6"
           style="fill:#d26557;fill-opacity:1" />
        <path
           d="m 191.57675,256.92888 c -3.84408,0 -7.35096,1.55112 -9.91368,4.11384 v -1.55112 c 0,-1.14648 -0.87672,-2.09064 -2.0232,-2.09064 -1.14648,0 -2.09064,0.94416 -2.09064,2.09064 v 29.26895 c 0,1.28136 1.0116,2.3604 2.3604,2.3604 1.28136,0 2.29296,-1.07904 2.29296,-2.3604 V 270.9564 c 0,-5.12544 4.18128,-9.37416 9.37416,-9.37416 5.12544,0 9.37416,4.24872 9.37416,9.37416 v 17.80415 c 0,1.28136 1.0116,2.3604 2.29296,2.3604 1.28136,0 2.3604,-1.07904 2.3604,-2.3604 V 270.9564 c 0,-7.7556 -6.27192,-14.02752 -14.02752,-14.02752 z"
           data-paper-data="{&quot;glyphName&quot;:&quot;n&quot;,&quot;glyphIndex&quot;:1,&quot;word&quot;:1,&quot;line&quot;:1}"
           id="path8"
           style="fill:#d26557;fill-opacity:1" />
        <path
           d="m 214.97842,250.11744 c 0,1.3488 -0.94416,2.29296 -2.3604,2.29296 -1.21392,0 -2.29296,-0.94416 -2.29296,-2.29296 0,-1.21392 1.07904,-2.29296 2.29296,-2.29296 1.41624,0 2.3604,1.07904 2.3604,2.29296 z m -2.22552,41.0035 c -1.3488,0 -2.42784,-1.07904 -2.42784,-2.42784 v -29.20151 c 0,-1.41624 1.07904,-2.49528 2.49528,-2.49528 1.21392,0 2.29296,1.07904 2.29296,2.49528 v 29.20151 c 0,1.3488 -1.07904,2.42784 -2.3604,2.42784 z"
           data-paper-data="{&quot;glyphName&quot;:&quot;i&quot;,&quot;glyphIndex&quot;:2,&quot;word&quot;:1,&quot;line&quot;:1}"
           id="path10"
           style="fill:#d26557;fill-opacity:1" />
        <path
           d="m 245.93337,291.12094 c 1.28136,0 2.3604,-1.0116 2.3604,-2.3604 v -17.80415 c 0,-5.12544 4.18128,-9.37416 9.37416,-9.37416 5.12544,0 9.30672,4.24872 9.30672,9.37416 v 17.80415 c 0,1.3488 1.07904,2.3604 2.3604,2.3604 1.28136,0 2.3604,-1.0116 2.3604,-2.3604 v -17.80415 c 0,-7.7556 -6.33936,-14.02752 -14.02752,-14.02752 -4.92312,0 -9.23928,2.49528 -11.73456,6.27192 -2.49528,-3.77664 -6.744,-6.27192 -11.66712,-6.27192 -3.84408,0 -7.35096,1.55112 -9.84624,4.0464 v -1.48368 c 0,-1.14648 -0.94416,-2.09064 -2.09064,-2.09064 -1.14648,0 -2.15808,0.94416 -2.15808,2.09064 v 29.26895 c 0,1.3488 1.14648,2.3604 2.42784,2.3604 1.28136,0 2.29296,-1.0116 2.29296,-2.3604 v -17.80415 c 0,-5.12544 4.18128,-9.37416 9.37416,-9.37416 5.19288,0 9.37416,4.24872 9.37416,9.37416 v 17.80415 c 0,1.3488 1.0116,2.3604 2.29296,2.3604 z"
           data-paper-data="{&quot;glyphName&quot;:&quot;m&quot;,&quot;glyphIndex&quot;:3,&quot;word&quot;:1,&quot;line&quot;:1}"
           id="path12"
           style="fill:#d26557;fill-opacity:1" />
        <path
           d="m 308.31535,257.40096 c -1.14648,0 -2.09064,0.87672 -2.09064,2.0232 v 3.7092 c -3.16968,-3.7092 -7.89048,-6.0696 -13.1508,-6.0696 -9.57648,0 -17.33207,7.7556 -17.33207,17.26463 0,9.57648 7.7556,17.33207 17.33207,17.33207 5.26032,0 9.98112,-2.3604 13.1508,-6.0696 v 3.43944 c 0,1.14648 0.94416,2.09064 2.09064,2.09064 1.14648,0 2.0232,-0.94416 2.0232,-2.09064 v -29.60615 c 0,-1.14648 -0.87672,-2.0232 -2.0232,-2.0232 z m -15.24144,29.53871 c -6.94632,0 -12.61128,-5.59752 -12.61128,-12.61128 0,-6.94632 5.66496,-12.54384 12.61128,-12.54384 6.94632,0 12.61128,5.59752 12.61128,12.54384 0,7.01376 -5.66496,12.61128 -12.61128,12.61128 z"
           data-paper-data="{&quot;glyphName&quot;:&quot;a&quot;,&quot;glyphIndex&quot;:4,&quot;word&quot;:1,&quot;line&quot;:1}"
           id="path14"
           style="fill:#d26557;fill-opacity:1" />
        <path
           d="m 329.8287,286.40015 h -3.10224 c -3.43944,0 -6.27192,-2.76504 -6.27192,-6.27192 v -18.54599 h 9.7788 c 1.07904,0 2.0232,-0.94416 2.0232,-2.15808 0,-1.07904 -0.94416,-2.0232 -2.0232,-2.0232 h -9.7788 v -8.43 c 0,-1.21392 -1.07904,-2.29296 -2.29296,-2.29296 -1.3488,0 -2.42784,1.07904 -2.42784,2.29296 v 31.15727 c 0,6.00216 4.99056,10.99272 10.99272,10.99272 h 3.10224 c 1.3488,0 2.42784,-1.07904 2.42784,-2.42784 0,-1.21392 -1.07904,-2.29296 -2.42784,-2.29296 z"
           data-paper-data="{&quot;glyphName&quot;:&quot;t&quot;,&quot;glyphIndex&quot;:5,&quot;word&quot;:1,&quot;line&quot;:1}"
           id="path16"
           style="fill:#d26557;fill-opacity:1" />
        <path
           d="m 340.6191,250.11744 c 0,1.3488 -0.94416,2.29296 -2.3604,2.29296 -1.21392,0 -2.29296,-0.94416 -2.29296,-2.29296 0,-1.21392 1.07904,-2.29296 2.29296,-2.29296 1.41624,0 2.3604,1.07904 2.3604,2.29296 z m -2.22552,41.0035 c -1.3488,0 -2.42784,-1.07904 -2.42784,-2.42784 v -29.20151 c 0,-1.41624 1.07904,-2.49528 2.49528,-2.49528 1.21392,0 2.29296,1.07904 2.29296,2.49528 v 29.20151 c 0,1.3488 -1.07904,2.42784 -2.3604,2.42784 z"
           data-paper-data="{&quot;glyphName&quot;:&quot;i&quot;,&quot;glyphIndex&quot;:6,&quot;word&quot;:1,&quot;line&quot;:1}"
           id="path18"
           style="fill:#d26557;fill-opacity:1" />
        <path
           d="m 362.40221,257.1312 c -9.50904,0 -17.26463,7.7556 -17.26463,17.26463 0,9.50904 7.7556,17.26463 17.26463,17.26463 9.50904,0 17.26463,-7.7556 17.26463,-17.26463 0,-9.50904 -7.7556,-17.26463 -17.26463,-17.26463 z m 0,4.72079 c 6.94632,0 12.54384,5.59752 12.54384,12.54384 0,6.94632 -5.59752,12.61128 -12.54384,12.61128 -6.94632,0 -12.61128,-5.66496 -12.61128,-12.61128 0,-6.94632 5.66496,-12.54384 12.61128,-12.54384 z"
           data-paper-data="{&quot;glyphName&quot;:&quot;o&quot;,&quot;glyphIndex&quot;:7,&quot;word&quot;:1,&quot;line&quot;:1}"
           id="path20"
           style="fill:#d26557;fill-opacity:1" />
        <path
           d="m 398.41516,256.92888 c -3.84408,0 -7.35096,1.55112 -9.91368,4.11384 v -1.55112 c 0,-1.14648 -0.87672,-2.09064 -2.0232,-2.09064 -1.14648,0 -2.09064,0.94416 -2.09064,2.09064 v 29.26895 c 0,1.28136 1.0116,2.3604 2.3604,2.3604 1.28136,0 2.29296,-1.07904 2.29296,-2.3604 V 270.9564 c 0,-5.12544 4.18128,-9.37416 9.37416,-9.37416 5.12544,0 9.37416,4.24872 9.37416,9.37416 v 17.80415 c 0,1.28136 1.0116,2.3604 2.29296,2.3604 1.28136,0 2.3604,-1.07904 2.3604,-2.3604 V 270.9564 c 0,-7.7556 -6.27192,-14.02752 -14.02752,-14.02752 z"
           data-paper-data="{&quot;glyphName&quot;:&quot;n&quot;,&quot;glyphIndex&quot;:8,&quot;lastGlyphOfWord&quot;:true,&quot;word&quot;:1,&quot;line&quot;:1,&quot;lastGlyphOfFirstLine&quot;:true}"
           id="path22"
           style="fill:#d26557;fill-opacity:1" />
        <path
           d="m 199.10674,320.94281 c -0.40464,-1.686 -1.07904,-3.30456 -2.0232,-4.78824 -3.0348,-4.99056 -8.49744,-8.22768 -14.36472,-8.22768 -4.45104,0 -8.63232,1.75344 -11.802,4.92312 -4.18128,4.18128 -5.79984,10.52064 -4.51848,16.25304 0.74184,3.10224 2.3604,6.00216 4.65336,8.29512 3.23712,3.23712 7.55328,5.058 12.1392,5.058 2.42784,0 4.78824,-0.47208 7.01376,-1.48368 2.09064,-0.94416 3.97896,-2.29296 5.59752,-3.97896 0.87672,-0.94416 0.80928,-2.42784 -0.13488,-3.30456 -0.94416,-0.87672 -2.42784,-0.87672 -3.30456,0.0674 -1.14648,1.28136 -2.56272,2.22552 -4.11384,2.96736 -1.55112,0.6744 -3.30456,1.0116 -5.058,1.0116 -3.30456,0 -6.47424,-1.28136 -8.83464,-3.64176 -2.0232,-2.0232 -3.23712,-4.58592 -3.57432,-7.35096 3.0348,0 6.0696,0 9.17184,0 h 14.1624 c 1.21392,0 2.56272,0.0674 3.7092,-0.3372 1.07904,-0.40464 1.686,-1.28136 1.75344,-2.42784 0,-1.07904 -0.26976,-2.15808 -0.47208,-3.0348 z m -28.25735,1.82088 c 0.3372,-1.95576 1.07904,-3.77664 2.22552,-5.32776 2.22552,-3.16968 5.7324,-5.19288 9.64392,-5.19288 3.91152,0 7.4184,2.0232 9.64392,5.19288 1.14648,1.55112 1.88832,3.30456 2.22552,5.32776 z"
           data-paper-data="{&quot;glyphName&quot;:&quot;e&quot;,&quot;glyphIndex&quot;:9,&quot;firstGlyphOfWord&quot;:true,&quot;word&quot;:2,&quot;line&quot;:2,&quot;firstGlyphOfSecondLine&quot;:true}"
           id="path24"
           style="fill:#d26557;fill-opacity:1" />
        <path
           d="m 217.98994,307.72457 c -3.84408,0 -7.35096,1.55112 -9.91368,4.11384 v -1.55112 c 0,-1.14648 -0.87672,-2.09064 -2.0232,-2.09064 -1.14648,0 -2.09064,0.94416 -2.09064,2.09064 v 29.26895 c 0,1.28136 1.0116,2.3604 2.3604,2.3604 1.28136,0 2.29296,-1.07904 2.29296,-2.3604 v -17.80415 c 0,-5.12544 4.18128,-9.37416 9.37416,-9.37416 5.12544,0 9.37416,4.24872 9.37416,9.37416 v 17.80415 c 0,1.28136 1.0116,2.3604 2.29296,2.3604 1.28136,0 2.3604,-1.07904 2.3604,-2.3604 v -17.80415 c 0,-7.7556 -6.27192,-14.02752 -14.02752,-14.02752 z"
           data-paper-data="{&quot;glyphName&quot;:&quot;n&quot;,&quot;glyphIndex&quot;:10,&quot;word&quot;:2,&quot;line&quot;:2}"
           id="path26"
           style="fill:#d26557;fill-opacity:1" />
        <path
           d="m 268.56992,308.06177 c -1.14648,0 -2.09064,0.94416 -2.09064,2.09064 v 3.77664 c -3.16968,-3.7092 -7.89048,-6.00216 -13.08336,-6.00216 -9.57648,0 -17.33207,7.7556 -17.33207,17.33207 0,9.50904 7.7556,17.26463 17.33207,17.26463 5.19288,0 9.91368,-2.29296 13.08336,-6.00216 v 2.49528 c 0,6.54168 -5.26032,11.802 -11.802,11.802 -1.686,0 -3.30456,-0.3372 -4.78824,-1.0116 -1.07904,-0.47208 -2.29296,0 -2.76504,1.07904 -0.47208,1.0116 0,2.29296 1.0116,2.76504 2.09064,0.94416 4.31616,1.3488 6.54168,1.3488 8.83464,0 15.98328,-7.14864 15.98328,-15.98328 V 310.1524 c 0,-1.14648 -0.94416,-2.09064 -2.09064,-2.09064 z m -15.174,29.74104 c -6.94632,0 -12.61128,-5.66496 -12.61128,-12.54384 0,-6.94632 5.66496,-12.61128 12.61128,-12.61128 6.87888,0 12.54384,5.66496 12.54384,12.61128 0,6.87888 -5.66496,12.54384 -12.54384,12.54384 z"
           data-paper-data="{&quot;glyphName&quot;:&quot;g&quot;,&quot;glyphIndex&quot;:11,&quot;word&quot;:2,&quot;line&quot;:2}"
           id="path28"
           style="fill:#d26557;fill-opacity:1" />
        <path
           d="m 280.70912,300.91314 c 0,1.3488 -0.94416,2.29296 -2.3604,2.29296 -1.21392,0 -2.29296,-0.94416 -2.29296,-2.29296 0,-1.21392 1.07904,-2.29296 2.29296,-2.29296 1.41624,0 2.3604,1.07904 2.3604,2.29296 z m -2.22552,41.0035 c -1.3488,0 -2.42784,-1.07904 -2.42784,-2.42784 v -29.20151 c 0,-1.41624 1.07904,-2.49528 2.49528,-2.49528 1.21392,0 2.29296,1.07904 2.29296,2.49528 v 29.20151 c 0,1.3488 -1.07904,2.42784 -2.3604,2.42784 z"
           data-paper-data="{&quot;glyphName&quot;:&quot;i&quot;,&quot;glyphIndex&quot;:12,&quot;word&quot;:2,&quot;line&quot;:2}"
           id="path30"
           style="fill:#d26557;fill-opacity:1" />
        <path
           d="m 299.92951,307.72457 c -3.84408,0 -7.35096,1.55112 -9.91368,4.11384 v -1.55112 c 0,-1.14648 -0.87672,-2.09064 -2.0232,-2.09064 -1.14648,0 -2.09064,0.94416 -2.09064,2.09064 v 29.26895 c 0,1.28136 1.0116,2.3604 2.3604,2.3604 1.28136,0 2.29296,-1.07904 2.29296,-2.3604 v -17.80415 c 0,-5.12544 4.18128,-9.37416 9.37416,-9.37416 5.12544,0 9.37416,4.24872 9.37416,9.37416 v 17.80415 c 0,1.28136 1.0116,2.3604 2.29296,2.3604 1.28136,0 2.3604,-1.07904 2.3604,-2.3604 v -17.80415 c 0,-7.7556 -6.27192,-14.02752 -14.02752,-14.02752 z"
           data-paper-data="{&quot;glyphName&quot;:&quot;n&quot;,&quot;glyphIndex&quot;:13,&quot;word&quot;:2,&quot;line&quot;:2}"
           id="path32"
           style="fill:#d26557;fill-opacity:1" />
        <path
           d="m 351.18389,320.94281 c -0.40464,-1.686 -1.07904,-3.30456 -2.0232,-4.78824 -3.0348,-4.99056 -8.49744,-8.22768 -14.36472,-8.22768 -4.45104,0 -8.63232,1.75344 -11.802,4.92312 -4.18128,4.18128 -5.79984,10.52064 -4.51848,16.25304 0.74184,3.10224 2.3604,6.00216 4.65336,8.29512 3.23712,3.23712 7.55328,5.058 12.1392,5.058 2.42784,0 4.78824,-0.47208 7.01376,-1.48368 2.09064,-0.94416 3.97896,-2.29296 5.59752,-3.97896 0.87672,-0.94416 0.80928,-2.42784 -0.13488,-3.30456 -0.94416,-0.87672 -2.42784,-0.87672 -3.30456,0.0674 -1.14648,1.28136 -2.56272,2.22552 -4.11384,2.96736 -1.55112,0.6744 -3.30456,1.0116 -5.058,1.0116 -3.30456,0 -6.47424,-1.28136 -8.83464,-3.64176 -2.0232,-2.0232 -3.23712,-4.58592 -3.57432,-7.35096 3.0348,0 6.0696,0 9.17184,0 h 14.1624 c 1.21392,0 2.56272,0.0674 3.7092,-0.3372 1.07904,-0.40464 1.686,-1.28136 1.75344,-2.42784 0,-1.07904 -0.26976,-2.15808 -0.47208,-3.0348 z m -28.25735,1.82088 c 0.3372,-1.95576 1.07904,-3.77664 2.22552,-5.32776 2.22552,-3.16968 5.7324,-5.19288 9.64392,-5.19288 3.91152,0 7.4184,2.0232 9.64392,5.19288 1.14648,1.55112 1.88832,3.30456 2.22552,5.32776 z"
           data-paper-data="{&quot;glyphName&quot;:&quot;e&quot;,&quot;glyphIndex&quot;:14,&quot;lastGlyphOfWord&quot;:true,&quot;word&quot;:2,&quot;line&quot;:2,&quot;lastGlyphOfSecondLine&quot;:true}"
           id="path34"
           style="fill:#d26557;fill-opacity:1" />
      </g>
      <g
         data-paper-data="{&quot;fillRule&quot;:&quot;evenodd&quot;,&quot;fillRuleOriginal&quot;:&quot;evenodd&quot;,&quot;isIcon&quot;:true,&quot;iconStyle&quot;:&quot;standalone&quot;,&quot;selectedEffects&quot;:{&quot;container&quot;:&quot;&quot;,&quot;transformation&quot;:&quot;&quot;,&quot;pattern&quot;:&quot;&quot;},&quot;bounds&quot;:{&quot;x&quot;:138.63888131594678,&quot;y&quot;:114.99999999999997,&quot;width&quot;:272.7222373681064,&quot;height&quot;:108.63532903634862},&quot;iconType&quot;:&quot;icon&quot;,&quot;rawIconId&quot;:&quot;83208&quot;,&quot;combineTerms&quot;:&quot;squirrel&quot;,&quot;isDetailed&quot;:false,&quot;suitableAsStandaloneIcon&quot;:true}"
         fill-rule="evenodd"
         id="g40">
        <path
           d="m 361.67622,116.21893 c 22.82838,-4.41484 36.47427,4.15591 42.19998,9.87838 4.26919,4.26596 8.29564,13.04062 7.34406,14.69782 0,0 -5.85194,-3.10722 -21.57578,2.13297 -18.49445,6.1659 -26.55382,33.43178 -55.00757,44.3362 -22.70863,8.7067 -37.69451,-5.92638 -37.69451,-5.92638 0,0 -6.45396,6.56725 -2.36926,14.22526 3.7934,7.11425 8.18883,7.32139 13.2057,15.67853 1.42414,2.36926 1.89022,5.58329 0.71208,8.77143 0,0 -1.46622,4.17534 -3.31761,3.56036 -2.13622,-0.71208 -2.24949,-2.71559 -4.19799,-6.43131 -3.96106,-7.56188 -12.11623,-6.85661 -21.5418,-6.04193 -9.18929,0.7946 -19.58619,1.69344 -28.48127,-4.86249 -5.02011,-3.69953 -8.36037,-9.53853 -13.28014,-12.56483 -6.16266,-3.79663 -11.84952,-4.50871 -19.20005,-6.40541 -6.67309,-1.72224 -11.0834,-3.77528 -14.66286,-5.4412 -6.98154,-3.24964 -10.80181,-5.02788 -22.08653,-0.0126 -12.02431,5.34637 -18.03485,-0.89267 -23.47575,-6.54071 -1.63453,-1.69667 -3.21769,-3.33995 -4.89708,-4.59999 -3.90345,-2.9292 -4.97803,-3.39853 -8.29564,-3.47621 -1.90511,-0.046 -3.15241,0.20456 -4.03075,0.38095 -1.15861,0.23304 -1.67525,0.33662 -2.21283,-0.53955 -0.36252,-0.58908 -0.31719,-1.57951 1.81578,-2.76414 4.72881,-2.63143 7.66125,-3.26582 18.41354,1.57627 10.35417,4.66731 10.48365,-6.66435 3.36292,-5.6189 -9.88486,1.44681 -15.20921,0.37869 -17.66262,-3.29819 -0.78975,-1.18787 -0.86743,-7.17251 3.47944,-12.31237 7.20167,-8.50926 13.55753,-9.12844 16.98162,-9.46183 1.11892,-0.10908 1.92453,-0.1874 2.34466,-0.50072 7.24695,-5.40527 10.41244,-0.66029 10.41244,-0.66029 0,0 -3.16549,2.10708 -1.84491,4.61228 0.37157,0.70495 1.3251,0.81791 3.13571,1.03219 4.62394,0.54765 14.83764,1.75752 35.22232,15.1804 11.0533,7.27932 37.10543,17.37779 54.56414,17.52992 14.76255,0.13271 21.9383,-0.055 28.33723,-4.08471 19.02527,-11.98547 16.88906,-42.88293 64.30335,-52.04923 z m -205.81797,31.55126 c 0,0.82535 0.67,1.49858 1.49858,1.49858 0.8286,0 1.49858,-0.67 1.49858,-1.49858 0,-0.8286 -0.67,-1.49858 -1.49858,-1.49858 -0.8286,0 -1.49858,0.67323 -1.49858,1.49858 z"
           data-paper-data="{&quot;isPathIcon&quot;:true}"
           id="path38"
           style="fill:#d26557;fill-opacity:1" />
      </g>
    </g>
  </g>
  <g
     class="watermark-group"
     style="opacity:0.04"
     id="g72"
     transform="translate(-137.55732,-75.199651)" />
</svg>
